<svg width="778" height="420" fill="none" xmlns="http://www.w3.org/2000/svg"><path d="M789.81 364.818c4.364-46.435-3.203-93.451-22.195-137.9-18.991-44.45-48.969-85.308-87.927-119.841-38.957-34.532-85.996-61.942-137.967-80.395C489.749 8.23 434.044-.84 378.333.08c-55.711.92-110.142 11.808-159.65 31.936-49.509 20.129-92.953 49.033-127.424 84.777-34.471 35.745-59.175 77.506-72.457 122.489C5.519 284.265-5.777 338.807 4.5 385c10.276 46.193 250.543 33.1 405.901 29.851 149.419-3.124 379.409-50.033 379.409-50.033z" fill="#fff" fill-opacity=".4"/></svg>