<svg width="778" height="420" viewBox="0 0 778 420" fill="none" xmlns="http://www.w3.org/2000/svg">
<path d="M789.81 364.818C794.174 318.383 786.607 271.367 767.615 226.918C748.624 182.468 718.646 141.61 679.688 107.077C640.731 72.5448 593.692 45.135 541.721 26.6823C489.749 8.22954 434.044 -0.840391 378.333 0.0795036C322.622 0.999398 268.191 11.8879 218.683 32.0163C169.174 52.1446 125.73 81.0485 91.2592 116.793C56.7879 152.538 32.0842 194.299 18.8017 239.282C5.5191 284.265 -5.77657 338.807 4.49992 385C14.7764 431.193 255.043 418.1 410.401 414.851C559.82 411.727 789.81 364.818 789.81 364.818Z" fill="white" fill-opacity="0.4"/>
</svg>
