<svg width="80" height="80" viewBox="0 0 80 80" fill="none" xmlns="http://www.w3.org/2000/svg">
<path d="M66.5331 29.8667C64.2998 27.4 60.9331 25.9667 56.2665 25.4667V22.9333C56.2665 18.3667 54.3331 13.9667 50.9331 10.9C47.4998 7.76668 43.0331 6.30001 38.3998 6.73335C30.4331 7.50001 23.7331 15.2 23.7331 23.5333V25.4667C19.0665 25.9667 15.6998 27.4 13.4665 29.8667C10.2331 33.4667 10.3331 38.2667 10.6998 41.6L13.0331 60.1667C13.7331 66.6667 16.3665 73.3334 30.6998 73.3334H49.2998C63.6331 73.3334 66.2665 66.6667 66.9665 60.2L69.2998 41.5667C69.6665 38.2667 69.7665 33.4667 66.5331 29.8667ZM38.8665 11.3667C42.1998 11.0667 45.3665 12.1 47.8331 14.3333C50.2665 16.5333 51.6331 19.6667 51.6331 22.9333V25.2667H28.3665V23.5333C28.3665 17.6 33.2665 11.9 38.8665 11.3667ZM39.9998 61.9334C33.0331 61.9334 27.3665 56.2667 27.3665 49.3C27.3665 42.3334 33.0331 36.6667 39.9998 36.6667C46.9665 36.6667 52.6331 42.3334 52.6331 49.3C52.6331 56.2667 46.9665 61.9334 39.9998 61.9334Z" fill="url(#paint0_linear_941_14812)"/>
<path d="M36.6663 55.2667C35.8329 55.2667 34.9996 54.8333 34.5329 54.0667C33.8329 52.9 34.1996 51.3333 35.3996 50.6333L38.3663 48.8667V45.2667C38.3663 43.9 39.4996 42.7667 40.8663 42.7667C42.2329 42.7667 43.3329 43.8667 43.3329 45.2667V50.2667C43.3329 51.1333 42.8663 51.9667 42.1329 52.4L37.9663 54.9C37.5663 55.1333 37.0996 55.2667 36.6663 55.2667Z" fill="url(#paint1_linear_941_14812)"/>
<defs>
<linearGradient id="paint0_linear_941_14812" x1="63.4651" y1="6.65887" x2="3.09598" y2="20.2822" gradientUnits="userSpaceOnUse">
<stop stop-color="#E8504B"/>
<stop offset="1" stop-color="#F2703C"/>
</linearGradient>
<linearGradient id="paint1_linear_941_14812" x1="42.3994" y1="42.7667" x2="32.8819" y2="44.5453" gradientUnits="userSpaceOnUse">
<stop stop-color="#E8504B"/>
<stop offset="1" stop-color="#F2703C"/>
</linearGradient>
</defs>
</svg>
