<svg width="80" height="80" viewBox="0 0 80 80" fill="none" xmlns="http://www.w3.org/2000/svg">
<path d="M73.3333 16.1667V55.8C73.3333 59.0333 70.7 62 67.4667 62.4L66.4333 62.5333C60.9667 63.2667 53.2667 65.5333 47.0667 68.1333C44.9 69.0333 42.5 67.4 42.5 65.0333V18.6667C42.5 17.4333 43.2 16.3 44.3 15.7C50.4 12.4 59.6333 9.46668 65.9 8.93335H66.1C70.1 8.93335 73.3333 12.1667 73.3333 16.1667Z" fill="url(#paint0_linear_941_14906)"/>
<path d="M35.7005 15.7C29.6005 12.4 20.3671 9.46668 14.1005 8.93335H13.8671C9.86712 8.93335 6.63379 12.1667 6.63379 16.1667V55.8C6.63379 59.0333 9.26712 62 12.5005 62.4L13.5338 62.5333C19.0005 63.2667 26.7005 65.5333 32.9005 68.1333C35.0671 69.0333 37.4671 67.4 37.4671 65.0333V18.6667C37.4671 17.4 36.8005 16.3 35.7005 15.7ZM16.6671 25.8H24.1671C25.5338 25.8 26.6671 26.9333 26.6671 28.3C26.6671 29.7 25.5338 30.8 24.1671 30.8H16.6671C15.3005 30.8 14.1671 29.7 14.1671 28.3C14.1671 26.9333 15.3005 25.8 16.6671 25.8ZM26.6671 40.8H16.6671C15.3005 40.8 14.1671 39.7 14.1671 38.3C14.1671 36.9333 15.3005 35.8 16.6671 35.8H26.6671C28.0338 35.8 29.1671 36.9333 29.1671 38.3C29.1671 39.7 28.0338 40.8 26.6671 40.8Z" fill="url(#paint1_linear_941_14906)"/>
<defs>
<linearGradient id="paint0_linear_941_14906" x1="70.1886" y1="8.93334" x2="37.58" y2="13.2494" gradientUnits="userSpaceOnUse">
<stop stop-color="#E8504B"/>
<stop offset="1" stop-color="#F2703C"/>
</linearGradient>
<linearGradient id="paint1_linear_941_14906" x1="34.3224" y1="8.93334" x2="1.71382" y2="13.2494" gradientUnits="userSpaceOnUse">
<stop stop-color="#E8504B"/>
<stop offset="1" stop-color="#F2703C"/>
</linearGradient>
</defs>
</svg>
