<svg width="80" height="80" viewBox="0 0 80 80" fill="none" xmlns="http://www.w3.org/2000/svg">
<path d="M50 23.5667C50 21.3334 48.9 19.2667 47.0333 18.0334L33.7 9.13336C31.4667 7.63336 28.5333 7.63336 26.3 9.13336L12.9667 18.0334C11.1333 19.2667 10 21.3334 10 23.5667V42.5C10 43.4334 10.7333 44.1667 11.6667 44.1667H48.3333C49.2667 44.1667 50 43.4334 50 42.5V23.5667ZM30 35.8334C26.8 35.8334 24.1667 33.2 24.1667 30C24.1667 26.8 26.8 24.1667 30 24.1667C33.2 24.1667 35.8333 26.8 35.8333 30C35.8333 33.2 33.2 35.8334 30 35.8334Z" fill="url(#paint0_linear_941_15359)"/>
<path d="M73.3337 70.8333H69.1003V60.8333C72.267 59.8 74.567 56.8333 74.567 53.3333V46.6667C74.567 42.3 71.0003 38.7333 66.6337 38.7333C62.267 38.7333 58.7003 42.3 58.7003 46.6667V53.3333C58.7003 56.8 60.967 59.7333 64.067 60.8V70.8333H50.0003V50.8333C50.0003 49.9 49.267 49.1667 48.3337 49.1667H11.667C10.7337 49.1667 10.0003 49.9 10.0003 50.8333V70.8333H6.66699C5.30033 70.8333 4.16699 71.9667 4.16699 73.3333C4.16699 74.7 5.30033 75.8333 6.66699 75.8333H66.4337C66.5003 75.8333 66.5337 75.8667 66.6003 75.8667C66.667 75.8667 66.7003 75.8333 66.767 75.8333H73.3337C74.7003 75.8333 75.8337 74.7 75.8337 73.3333C75.8337 71.9667 74.7003 70.8333 73.3337 70.8333ZM27.5003 60.8333C27.5003 59.4667 28.6337 58.3333 30.0003 58.3333C31.367 58.3333 32.5003 59.4667 32.5003 60.8333V70.8333H27.5003V60.8333Z" fill="url(#paint1_linear_941_15359)"/>
<defs>
<linearGradient id="paint0_linear_941_15359" x1="45.9204" y1="8.00836" x2="6.05385" y2="19.2636" gradientUnits="userSpaceOnUse">
<stop stop-color="#E8504B"/>
<stop offset="1" stop-color="#F2703C"/>
</linearGradient>
<linearGradient id="paint1_linear_941_15359" x1="68.5244" y1="38.7333" x2="6.4605" y2="69.3028" gradientUnits="userSpaceOnUse">
<stop stop-color="#E8504B"/>
<stop offset="1" stop-color="#F2703C"/>
</linearGradient>
</defs>
</svg>
