<svg width="80" height="80" viewBox="0 0 80 80" fill="none" xmlns="http://www.w3.org/2000/svg">
<path d="M55.8338 11.8667V6.66666C55.8338 5.29999 54.7004 4.16666 53.3338 4.16666C51.9671 4.16666 50.8338 5.29999 50.8338 6.66666V11.6667H29.1671V6.66666C29.1671 5.29999 28.0338 4.16666 26.6671 4.16666C25.3004 4.16666 24.1671 5.29999 24.1671 6.66666V11.8667C15.1671 12.7 10.8004 18.0667 10.1338 26.0333C10.0671 27 10.8671 27.8 11.8004 27.8H68.2004C69.1671 27.8 69.9671 26.9667 69.8671 26.0333C69.2004 18.0667 64.8338 12.7 55.8338 11.8667Z" fill="url(#paint0_linear_941_13253)"/>
<path d="M66.6667 32.8H13.3333C11.5 32.8 10 34.3 10 36.1333V56.6667C10 66.6667 15 73.3333 26.6667 73.3333H53.3333C65 73.3333 70 66.6667 70 56.6667V36.1333C70 34.3 68.5 32.8 66.6667 32.8ZM30.7 60.7C30.5333 60.8333 30.3667 61 30.2 61.1C30 61.2333 29.8 61.3333 29.6 61.4C29.4 61.5 29.2 61.5667 29 61.6C28.7667 61.6333 28.5667 61.6667 28.3333 61.6667C27.9 61.6667 27.4667 61.5667 27.0667 61.4C26.6333 61.2333 26.3 61 25.9667 60.7C25.3667 60.0667 25 59.2 25 58.3333C25 57.4667 25.3667 56.6 25.9667 55.9667C26.3 55.6667 26.6333 55.4333 27.0667 55.2667C27.6667 55 28.3333 54.9333 29 55.0667C29.2 55.1 29.4 55.1667 29.6 55.2667C29.8 55.3333 30 55.4333 30.2 55.5667C30.3667 55.7 30.5333 55.8333 30.7 55.9667C31.3 56.6 31.6667 57.4667 31.6667 58.3333C31.6667 59.2 31.3 60.0667 30.7 60.7ZM30.7 49.0333C30.0667 49.6333 29.2 50 28.3333 50C27.4667 50 26.6 49.6333 25.9667 49.0333C25.3667 48.4 25 47.5333 25 46.6667C25 45.8 25.3667 44.9333 25.9667 44.3C26.9 43.3667 28.3667 43.0667 29.6 43.6C30.0333 43.7667 30.4 44 30.7 44.3C31.3 44.9333 31.6667 45.8 31.6667 46.6667C31.6667 47.5333 31.3 48.4 30.7 49.0333ZM42.3667 60.7C41.7333 61.3 40.8667 61.6667 40 61.6667C39.1333 61.6667 38.2667 61.3 37.6333 60.7C37.0333 60.0667 36.6667 59.2 36.6667 58.3333C36.6667 57.4667 37.0333 56.6 37.6333 55.9667C38.8667 54.7333 41.1333 54.7333 42.3667 55.9667C42.9667 56.6 43.3333 57.4667 43.3333 58.3333C43.3333 59.2 42.9667 60.0667 42.3667 60.7ZM42.3667 49.0333C42.2 49.1667 42.0333 49.3 41.8667 49.4333C41.6667 49.5667 41.4667 49.6667 41.2667 49.7333C41.0667 49.8333 40.8667 49.9 40.6667 49.9333C40.4333 49.9667 40.2333 50 40 50C39.1333 50 38.2667 49.6333 37.6333 49.0333C37.0333 48.4 36.6667 47.5333 36.6667 46.6667C36.6667 45.8 37.0333 44.9333 37.6333 44.3C37.9333 44 38.3 43.7667 38.7333 43.6C39.9667 43.0667 41.4333 43.3667 42.3667 44.3C42.9667 44.9333 43.3333 45.8 43.3333 46.6667C43.3333 47.5333 42.9667 48.4 42.3667 49.0333ZM54.0333 60.7C53.4 61.3 52.5333 61.6667 51.6667 61.6667C50.8 61.6667 49.9333 61.3 49.3 60.7C48.7 60.0667 48.3333 59.2 48.3333 58.3333C48.3333 57.4667 48.7 56.6 49.3 55.9667C50.5333 54.7333 52.8 54.7333 54.0333 55.9667C54.6333 56.6 55 57.4667 55 58.3333C55 59.2 54.6333 60.0667 54.0333 60.7ZM54.0333 49.0333C53.8667 49.1667 53.7 49.3 53.5333 49.4333C53.3333 49.5667 53.1333 49.6667 52.9333 49.7333C52.7333 49.8333 52.5333 49.9 52.3333 49.9333C52.1 49.9667 51.8667 50 51.6667 50C50.8 50 49.9333 49.6333 49.3 49.0333C48.7 48.4 48.3333 47.5333 48.3333 46.6667C48.3333 45.8 48.7 44.9333 49.3 44.3C49.6333 44 49.9667 43.7667 50.4 43.6C51 43.3333 51.6667 43.2667 52.3333 43.4C52.5333 43.4333 52.7333 43.5 52.9333 43.6C53.1333 43.6667 53.3333 43.7667 53.5333 43.9C53.7 44.0333 53.8667 44.1667 54.0333 44.3C54.6333 44.9333 55 45.8 55 46.6667C55 47.5333 54.6333 48.4 54.0333 49.0333Z" fill="url(#paint1_linear_941_13253)"/>
<defs>
<linearGradient id="paint0_linear_941_13253" x1="63.7821" y1="4.16665" x2="18.3857" y2="33.4552" gradientUnits="userSpaceOnUse">
<stop stop-color="#E8504B"/>
<stop offset="1" stop-color="#F2703C"/>
</linearGradient>
<linearGradient id="paint1_linear_941_13253" x1="63.8806" y1="32.8" x2="7.37808" y2="54.1453" gradientUnits="userSpaceOnUse">
<stop stop-color="#E8504B"/>
<stop offset="1" stop-color="#F2703C"/>
</linearGradient>
</defs>
</svg>
