<svg width="80" height="80" viewBox="0 0 80 80" fill="none" xmlns="http://www.w3.org/2000/svg">
<path d="M40.0003 6.66666C21.6003 6.66666 6.66699 21.6 6.66699 40C6.66699 58.4 21.6003 73.3333 40.0003 73.3333C58.4003 73.3333 73.3337 58.4 73.3337 40C73.3337 21.6 58.4003 6.66666 40.0003 6.66666ZM28.4337 44.9C29.4003 45.8667 29.4003 47.4667 28.4337 48.4333C27.9337 48.9333 27.3003 49.1667 26.667 49.1667C26.0337 49.1667 25.4003 48.9333 24.9003 48.4333L18.2337 41.7667C17.267 40.8 17.267 39.2 18.2337 38.2333L24.9003 31.5667C25.867 30.6 27.467 30.6 28.4337 31.5667C29.4003 32.5333 29.4003 34.1333 28.4337 35.1L23.5337 40L28.4337 44.9ZM45.6337 33.2L38.967 48.7667C38.567 49.7 37.6337 50.2667 36.667 50.2667C36.3337 50.2667 36.0003 50.2 35.7003 50.0667C34.4337 49.5333 33.8337 48.0667 34.4003 46.7667L41.067 31.2C41.6003 29.9333 43.067 29.3333 44.3337 29.9C45.6003 30.4667 46.167 31.9333 45.6337 33.2ZM61.767 41.7667L55.1003 48.4333C54.6003 48.9333 53.967 49.1667 53.3337 49.1667C52.7003 49.1667 52.067 48.9333 51.567 48.4333C50.6003 47.4667 50.6003 45.8667 51.567 44.9L56.467 40L51.567 35.1C50.6003 34.1333 50.6003 32.5333 51.567 31.5667C52.5337 30.6 54.1337 30.6 55.1003 31.5667L61.767 38.2333C62.7337 39.2 62.7337 40.8 61.767 41.7667Z" fill="url(#paint0_linear_941_9691)"/>
<defs>
<linearGradient id="paint0_linear_941_9691" x1="66.5343" y1="6.66665" x2="-0.819133" y2="23.8558" gradientUnits="userSpaceOnUse">
<stop stop-color="#E8504B"/>
<stop offset="1" stop-color="#F2703C"/>
</linearGradient>
</defs>
</svg>
