<svg width="80" height="80" viewBox="0 0 80 80" fill="none" xmlns="http://www.w3.org/2000/svg">
<path d="M71.6996 29.5159C71.9853 30.1465 71.5042 30.8334 70.8119 30.8334H7.66699C7.11471 30.8334 6.66699 30.3856 6.66699 29.8334V21.4C6.66699 13.2667 13.267 6.66669 21.4003 6.66669H29.1337C34.567 6.66669 36.267 8.43335 38.4337 11.3334L43.1003 17.5334C44.1337 18.9 44.267 19.0667 46.2003 19.0667H55.5003C62.6982 19.0667 68.9057 23.3485 71.6996 29.5159Z" fill="url(#paint0_linear_941_7040)"/>
<path d="M73.2704 36.83C73.2685 36.279 72.8213 35.8334 72.2704 35.8334L7.66699 35.8333C7.11471 35.8333 6.66699 36.281 6.66699 36.8333V55.5C6.66699 65.3333 14.667 73.3333 24.5003 73.3333H55.5003C65.3337 73.3333 73.3337 65.3333 73.3337 55.5L73.2704 36.83ZM48.467 56.5666L41.3003 62.8333C40.9337 63.1667 40.467 63.3333 40.0003 63.3333C39.5337 63.3333 39.067 63.1667 38.7003 62.8333L31.5337 56.5666C29.267 54.5666 28.967 51.1666 30.867 48.8C32.767 46.4 36.2003 45.9666 38.667 47.8L40.0003 48.8L41.3337 47.8C43.8003 45.9666 47.2337 46.4 49.1337 48.8C51.0337 51.1666 50.7337 54.5666 48.467 56.5666Z" fill="url(#paint1_linear_941_7040)"/>
<defs>
<linearGradient id="paint0_linear_941_7040" x1="65.5465" y1="6.66668" x2="17.8547" y2="39.6888" gradientUnits="userSpaceOnUse">
<stop stop-color="#E8504B"/>
<stop offset="1" stop-color="#F2703C"/>
</linearGradient>
<linearGradient id="paint1_linear_941_7040" x1="66.5343" y1="35.8333" x2="7.04067" y2="62.8258" gradientUnits="userSpaceOnUse">
<stop stop-color="#E8504B"/>
<stop offset="1" stop-color="#F2703C"/>
</linearGradient>
</defs>
</svg>
