<svg width="80" height="80" viewBox="0 0 80 80" fill="none" xmlns="http://www.w3.org/2000/svg">
<path d="M40.0003 6.66669C31.267 6.66669 24.167 13.7667 24.167 22.5C24.167 31.0667 30.867 38 39.6003 38.3C39.867 38.2667 40.1337 38.2667 40.3337 38.3C40.4003 38.3 40.4337 38.3 40.5003 38.3C40.5337 38.3 40.5337 38.3 40.567 38.3C49.1003 38 55.8003 31.0667 55.8337 22.5C55.8337 13.7667 48.7337 6.66669 40.0003 6.66669Z" fill="url(#paint0_linear_941_9111)"/>
<path d="M56.9332 47.1667C47.6332 40.9667 32.4665 40.9667 23.0999 47.1667C18.8665 50 16.5332 53.8333 16.5332 57.9333C16.5332 62.0333 18.8665 65.8333 23.0665 68.6333C27.7332 71.7667 33.8665 73.3333 39.9999 73.3333C46.1332 73.3333 52.2665 71.7667 56.9332 68.6333C61.1332 65.8 63.4665 62 63.4665 57.8667C63.4332 53.7667 61.1332 49.9667 56.9332 47.1667Z" fill="url(#paint1_linear_941_9111)"/>
<defs>
<linearGradient id="paint0_linear_941_9111" x1="52.604" y1="6.66668" x2="20.6152" y2="14.8391" gradientUnits="userSpaceOnUse">
<stop stop-color="#E8504B"/>
<stop offset="1" stop-color="#F2703C"/>
</linearGradient>
<linearGradient id="paint1_linear_941_9111" x1="58.6798" y1="42.5167" x2="14.8032" y2="59.5706" gradientUnits="userSpaceOnUse">
<stop stop-color="#E8504B"/>
<stop offset="1" stop-color="#F2703C"/>
</linearGradient>
</defs>
</svg>
