<svg width="80" height="80" viewBox="0 0 80 80" fill="none" xmlns="http://www.w3.org/2000/svg">
<path d="M62.7002 20.8333H67.2335C66.6002 19.9333 65.9335 19.1 65.2335 18.2667L62.7002 20.8333Z" fill="url(#paint0_linear_941_7026)"/>
<path d="M61.7337 14.7333C60.9003 14.0333 60.067 13.3667 59.167 12.7333V17.2667L61.7337 14.7333Z" fill="url(#paint1_linear_941_7026)"/>
<path d="M65.2667 18.2667L75.1001 8.43332C76.0667 7.46665 76.0667 5.86665 75.1001 4.89999C74.1334 3.93332 72.5334 3.93332 71.5667 4.89999L61.7334 14.7333C63.0001 15.8333 64.1667 17.0333 65.2667 18.2667Z" fill="url(#paint2_linear_941_7026)"/>
<path d="M59.1669 10C59.1669 8.63333 58.0335 7.5 56.6669 7.5C55.3335 7.5 54.2669 8.56667 54.2002 9.86667C55.9335 10.7 57.6002 11.6333 59.1669 12.7333V10Z" fill="url(#paint3_linear_941_7026)"/>
<path d="M72.5001 23.3333C72.5001 21.9666 71.3667 20.8333 70.0001 20.8333H67.2334C68.3334 22.4 69.3001 24.0666 70.1001 25.8C71.4334 25.7333 72.5001 24.6666 72.5001 23.3333Z" fill="url(#paint4_linear_941_7026)"/>
<path d="M42.5 49.1667H43.5C44.8 49.1667 45.8333 48 45.8333 46.5667C45.8333 44.7667 45.3333 44.5 44.2 44.1L42.5 43.5V49.1667Z" fill="url(#paint5_linear_941_7026)"/>
<path d="M70.1337 25.8C70.1003 25.8 70.067 25.8334 70.0003 25.8334H56.667C56.3337 25.8334 56.0337 25.7667 55.7003 25.6334C55.1003 25.3667 54.6003 24.9 54.3337 24.2667C54.2337 23.9667 54.167 23.6667 54.167 23.3334V10C54.167 9.96669 54.2003 9.93335 54.2003 9.86669C49.867 7.83335 45.067 6.66669 40.0003 6.66669C21.6003 6.66669 6.66699 21.6 6.66699 40C6.66699 58.4 21.6003 73.3334 40.0003 73.3334C58.4003 73.3334 73.3337 58.4 73.3337 40C73.3337 34.9334 72.167 30.1334 70.1337 25.8ZM45.8337 39.4C47.967 40.1334 50.8337 41.7 50.8337 46.6C50.8337 50.7667 47.5337 54.2 43.5003 54.2H42.5003V55.0334C42.5003 56.4 41.367 57.5334 40.0003 57.5334C38.6337 57.5334 37.5003 56.4 37.5003 55.0334V54.2H37.2337C32.8003 54.2 29.167 50.4667 29.167 45.8667C29.167 44.4667 30.3003 43.3334 31.667 43.3334C33.0337 43.3334 34.167 44.4667 34.167 45.8334C34.167 47.6667 35.5337 49.1667 37.2337 49.1667H37.5003V41.7667L34.167 40.6C32.0337 39.8667 29.167 38.3 29.167 33.4C29.167 29.2334 32.467 25.8 36.5003 25.8H37.5003V25C37.5003 23.6334 38.6337 22.5 40.0003 22.5C41.367 22.5 42.5003 23.6334 42.5003 25V25.8334H42.767C47.2003 25.8334 50.8337 29.5667 50.8337 34.1667C50.8337 35.5334 49.7003 36.6667 48.3337 36.6667C46.967 36.6667 45.8337 35.5334 45.8337 34.1667C45.8337 32.3334 44.467 30.8334 42.767 30.8334H42.5003V38.2334L45.8337 39.4Z" fill="url(#paint6_linear_941_7026)"/>
<path d="M34.167 33.4333C34.167 35.2333 34.667 35.5 35.8003 35.9L37.5003 36.5V30.8333H36.5003C35.2337 30.8333 34.167 32 34.167 33.4333Z" fill="url(#paint7_linear_941_7026)"/>
<defs>
<linearGradient id="paint0_linear_941_7026" x1="66.7712" y1="18.2667" x2="62.7166" y2="20.0943" gradientUnits="userSpaceOnUse">
<stop stop-color="#E8504B"/>
<stop offset="1" stop-color="#F2703C"/>
</linearGradient>
<linearGradient id="paint1_linear_941_7026" x1="61.4719" y1="12.7333" x2="58.7664" y2="13.1243" gradientUnits="userSpaceOnUse">
<stop stop-color="#E8504B"/>
<stop offset="1" stop-color="#F2703C"/>
</linearGradient>
<linearGradient id="paint2_linear_941_7026" x1="74.3879" y1="4.17499" x2="60.151" y2="7.80835" gradientUnits="userSpaceOnUse">
<stop stop-color="#E8504B"/>
<stop offset="1" stop-color="#F2703C"/>
</linearGradient>
<linearGradient id="paint3_linear_941_7026" x1="58.6603" y1="7.5" x2="53.6118" y2="8.72277" gradientUnits="userSpaceOnUse">
<stop stop-color="#E8504B"/>
<stop offset="1" stop-color="#F2703C"/>
</linearGradient>
<linearGradient id="paint4_linear_941_7026" x1="71.9629" y1="20.8333" x2="66.6822" y2="22.2624" gradientUnits="userSpaceOnUse">
<stop stop-color="#E8504B"/>
<stop offset="1" stop-color="#F2703C"/>
</linearGradient>
<linearGradient id="paint5_linear_941_7026" x1="45.4934" y1="43.5" x2="41.9854" y2="44.0266" gradientUnits="userSpaceOnUse">
<stop stop-color="#E8504B"/>
<stop offset="1" stop-color="#F2703C"/>
</linearGradient>
<linearGradient id="paint6_linear_941_7026" x1="66.5343" y1="6.66668" x2="-0.819133" y2="23.8559" gradientUnits="userSpaceOnUse">
<stop stop-color="#E8504B"/>
<stop offset="1" stop-color="#F2703C"/>
</linearGradient>
<linearGradient id="paint7_linear_941_7026" x1="37.1604" y1="30.8333" x2="33.6524" y2="31.3599" gradientUnits="userSpaceOnUse">
<stop stop-color="#E8504B"/>
<stop offset="1" stop-color="#F2703C"/>
</linearGradient>
</defs>
</svg>
