<svg width="177" height="31" viewBox="0 0 177 31" fill="none" xmlns="http://www.w3.org/2000/svg">
<path d="M0.152 17.256C0.152 14.76 0.668 12.54 1.7 10.596C2.756 8.628 4.244 7.104 6.164 6.024C8.084 4.92 10.292 4.368 12.788 4.368C15.956 4.368 18.62 5.22 20.78 6.924C22.94 8.604 24.332 10.896 24.956 13.8H17.36C16.904 12.84 16.268 12.108 15.452 11.604C14.66 11.1 13.736 10.848 12.68 10.848C11.048 10.848 9.74 11.436 8.756 12.612C7.796 13.764 7.316 15.312 7.316 17.256C7.316 19.224 7.796 20.796 8.756 21.972C9.74 23.124 11.048 23.7 12.68 23.7C13.736 23.7 14.66 23.448 15.452 22.944C16.268 22.44 16.904 21.708 17.36 20.748H24.956C24.332 23.652 22.94 25.956 20.78 27.66C18.62 29.34 15.956 30.18 12.788 30.18C10.292 30.18 8.084 29.64 6.164 28.56C4.244 27.456 2.756 25.932 1.7 23.988C0.668 22.02 0.152 19.776 0.152 17.256ZM35.3533 13.368C36.1453 12.216 37.1053 11.304 38.2333 10.632C39.3613 9.96 40.5733 9.624 41.8693 9.624V17.148H39.8893C38.3533 17.148 37.2133 17.448 36.4693 18.048C35.7253 18.648 35.3533 19.692 35.3533 21.18V30H28.2973V9.804H35.3533V13.368ZM63.6948 19.668C63.6948 20.22 63.6588 20.772 63.5868 21.324H50.2308C50.3028 22.428 50.6028 23.256 51.1308 23.808C51.6828 24.336 52.3788 24.6 53.2188 24.6C54.3948 24.6 55.2348 24.072 55.7388 23.016H63.2628C62.9508 24.408 62.3388 25.656 61.4268 26.76C60.5388 27.84 59.4108 28.692 58.0428 29.316C56.6748 29.94 55.1628 30.252 53.5068 30.252C51.5148 30.252 49.7388 29.832 48.1788 28.992C46.6428 28.152 45.4308 26.952 44.5428 25.392C43.6788 23.832 43.2468 21.996 43.2468 19.884C43.2468 17.772 43.6788 15.948 44.5428 14.412C45.4068 12.852 46.6068 11.652 48.1428 10.812C49.7028 9.972 51.4908 9.552 53.5068 9.552C55.4988 9.552 57.2628 9.96 58.7988 10.776C60.3348 11.592 61.5348 12.768 62.3988 14.304C63.2628 15.816 63.6948 17.604 63.6948 19.668ZM56.4948 17.904C56.4948 17.04 56.2068 16.368 55.6308 15.888C55.0548 15.384 54.3348 15.132 53.4708 15.132C52.6068 15.132 51.8988 15.372 51.3468 15.852C50.7948 16.308 50.4348 16.992 50.2668 17.904H56.4948ZM65.4304 19.884C65.4304 17.796 65.8024 15.972 66.5464 14.412C67.3144 12.852 68.3464 11.652 69.6424 10.812C70.9624 9.972 72.4264 9.552 74.0344 9.552C75.4264 9.552 76.6264 9.828 77.6344 10.38C78.6424 10.932 79.4224 11.676 79.9744 12.612V9.804H87.0304V30H79.9744V27.192C79.4224 28.128 78.6304 28.872 77.5984 29.424C76.5904 29.976 75.4024 30.252 74.0344 30.252C72.4264 30.252 70.9624 29.832 69.6424 28.992C68.3464 28.152 67.3144 26.952 66.5464 25.392C65.8024 23.808 65.4304 21.972 65.4304 19.884ZM79.9744 19.884C79.9744 18.588 79.6144 17.568 78.8944 16.824C78.1984 16.08 77.3344 15.708 76.3024 15.708C75.2464 15.708 74.3704 16.08 73.6744 16.824C72.9784 17.544 72.6304 18.564 72.6304 19.884C72.6304 21.18 72.9784 22.212 73.6744 22.98C74.3704 23.724 75.2464 24.096 76.3024 24.096C77.3344 24.096 78.1984 23.724 78.8944 22.98C79.6144 22.236 79.9744 21.204 79.9744 19.884ZM102.967 23.988V30H99.9072C94.7472 30 92.1672 27.444 92.1672 22.332V15.672H89.6832V9.804H92.1672V4.908H99.2592V9.804H102.931V15.672H99.2592V22.44C99.2592 22.992 99.3792 23.388 99.6192 23.628C99.8832 23.868 100.315 23.988 100.915 23.988H102.967ZM125.5 19.668C125.5 20.22 125.464 20.772 125.392 21.324H112.036C112.108 22.428 112.408 23.256 112.936 23.808C113.488 24.336 114.184 24.6 115.024 24.6C116.2 24.6 117.04 24.072 117.544 23.016H125.068C124.756 24.408 124.144 25.656 123.232 26.76C122.344 27.84 121.216 28.692 119.848 29.316C118.48 29.94 116.968 30.252 115.312 30.252C113.32 30.252 111.544 29.832 109.984 28.992C108.448 28.152 107.236 26.952 106.348 25.392C105.484 23.832 105.052 21.996 105.052 19.884C105.052 17.772 105.484 15.948 106.348 14.412C107.212 12.852 108.412 11.652 109.948 10.812C111.508 9.972 113.296 9.552 115.312 9.552C117.304 9.552 119.068 9.96 120.604 10.776C122.14 11.592 123.34 12.768 124.204 14.304C125.068 15.816 125.5 17.604 125.5 19.668ZM118.3 17.904C118.3 17.04 118.012 16.368 117.436 15.888C116.86 15.384 116.14 15.132 115.276 15.132C114.412 15.132 113.704 15.372 113.152 15.852C112.6 16.308 112.24 16.992 112.072 17.904H118.3ZM138.842 7.932C137.594 7.932 136.586 7.596 135.818 6.924C135.074 6.228 134.702 5.364 134.702 4.332C134.702 3.276 135.074 2.4 135.818 1.704C136.586 1.008 137.594 0.659998 138.842 0.659998C140.066 0.659998 141.05 1.008 141.794 1.704C142.562 2.4 142.946 3.276 142.946 4.332C142.946 5.364 142.562 6.228 141.794 6.924C141.05 7.596 140.066 7.932 138.842 7.932ZM142.334 9.804V30H135.278V9.804H142.334ZM158.268 23.988V30H155.208C150.048 30 147.468 27.444 147.468 22.332V15.672H144.984V9.804H147.468V4.908H154.56V9.804H158.232V15.672H154.56V22.44C154.56 22.992 154.68 23.388 154.92 23.628C155.184 23.868 155.616 23.988 156.216 23.988H158.268Z" fill="#9254C8"/>
<path d="M169.152 30.512C166.934 30.512 165.142 29.9147 163.776 28.72C162.454 27.4827 161.792 25.9253 161.792 24.048C161.792 22.1707 162.454 20.6133 163.776 19.376C165.142 18.1387 166.934 17.52 169.152 17.52C171.328 17.52 173.078 18.1387 174.4 19.376C175.766 20.6133 176.448 22.1707 176.448 24.048C176.448 25.8827 175.766 27.4187 174.4 28.656C173.078 29.8933 171.328 30.512 169.152 30.512Z" fill="#E8504B"/>
</svg>
